<svg xmlns="http://www.w3.org/2000/svg" width="50" height="50" fill="none"><g stroke="#4C4CFF" stroke-linecap="round" stroke-linejoin="round" filter="url(#a)"><path d="M38.622 36.925c.494-.612.043-1.483-.744-1.496-9.165-.151-16.855.023-26.333.61-.786.049-1.198.938-.677 1.528 3.355 3.797 8.208 6.183 13.606 6.183 5.696 0 10.786-2.657 14.148-6.825ZM8.617 15.585c-.387.68.19 1.464.965 1.37 10.489-1.283 18.262-1.667 29.223-.991.784.048 1.314-.775.882-1.43C36.394 9.537 30.81 6.25 24.474 6.25c-6.77 0-12.682 3.753-15.857 9.335Z"/></g><g stroke="#4C4CFF" stroke-linecap="round" stroke-linejoin="round" filter="url(#b)"><path d="M38.622 36.925c.494-.612.043-1.483-.744-1.496-9.165-.151-16.855.023-26.333.61-.786.049-1.198.938-.677 1.528 3.355 3.797 8.208 6.183 13.606 6.183 5.696 0 10.786-2.657 14.148-6.825ZM8.617 15.585c-.387.68.19 1.464.965 1.37 10.489-1.283 18.262-1.667 29.223-.991.784.048 1.314-.775.882-1.43C36.394 9.537 30.81 6.25 24.474 6.25c-6.77 0-12.682 3.753-15.857 9.335Z"/></g><path stroke="#4C4CFF" stroke-linecap="round" stroke-linejoin="round" d="M38.622 36.925c.494-.612.043-1.483-.744-1.496-9.165-.151-16.855.023-26.333.61-.786.049-1.198.938-.677 1.528 3.355 3.797 8.208 6.183 13.606 6.183 5.696 0 10.786-2.657 14.148-6.825ZM8.617 15.585c-.387.68.19 1.464.965 1.37 10.489-1.283 18.262-1.667 29.223-.991.784.048 1.314-.775.882-1.43C36.394 9.537 30.81 6.25 24.474 6.25c-6.77 0-12.682 3.753-15.857 9.335Z"/><path stroke="#fff" stroke-linecap="round" stroke-linejoin="round" stroke-width=".5" d="M38.622 36.925c.494-.612.043-1.483-.744-1.496-9.165-.151-16.855.023-26.333.61-.786.049-1.198.938-.677 1.528 3.355 3.797 8.208 6.183 13.606 6.183 5.696 0 10.786-2.657 14.148-6.825ZM8.617 15.585c-.387.68.19 1.464.965 1.37 10.489-1.283 18.262-1.667 29.223-.991.784.048 1.314-.775.882-1.43C36.394 9.537 30.81 6.25 24.474 6.25c-6.77 0-12.682 3.753-15.857 9.335Z"/><g filter="url(#c)"><path stroke="#E33CD5" stroke-linecap="round" stroke-linejoin="round" d="M42.657 27.424c.132-1.05-.682-1.95-1.736-2.037-11.681-.958-20.838-1.11-32.892-.466-1.059.056-1.898.936-1.795 1.99.13 1.329.397 2.617.784 3.85.254.806 1.04 1.307 1.885 1.277 11.36-.4 20.178-.43 31.197-.128.846.023 1.627-.483 1.875-1.292.314-1.03.545-2.097.682-3.194Z"/></g><g filter="url(#d)"><path stroke="#E33CD5" stroke-linecap="round" stroke-linejoin="round" d="M42.657 27.424c.132-1.05-.682-1.95-1.736-2.037-11.681-.958-20.838-1.11-32.892-.466-1.059.056-1.898.936-1.795 1.99.13 1.329.397 2.617.784 3.85.254.806 1.04 1.307 1.885 1.277 11.36-.4 20.178-.43 31.197-.128.846.023 1.627-.483 1.875-1.292.314-1.03.545-2.097.682-3.194Z"/></g><path stroke="#E33CD5" stroke-linecap="round" stroke-linejoin="round" d="M42.657 27.424c.132-1.05-.682-1.95-1.736-2.037-11.681-.958-20.838-1.11-32.892-.466-1.059.056-1.898.936-1.795 1.99.13 1.329.397 2.617.784 3.85.254.806 1.04 1.307 1.885 1.277 11.36-.4 20.178-.43 31.197-.128.846.023 1.627-.483 1.875-1.292.314-1.03.545-2.097.682-3.194Z"/><path stroke="#fff" stroke-linecap="round" stroke-linejoin="round" stroke-width=".5" d="M42.657 27.424c.132-1.05-.682-1.95-1.736-2.037-11.681-.958-20.838-1.11-32.892-.466-1.059.056-1.898.936-1.795 1.99.13 1.329.397 2.617.784 3.85.254.806 1.04 1.307 1.885 1.277 11.36-.4 20.178-.43 31.197-.128.846.023 1.627-.483 1.875-1.292.314-1.03.545-2.097.682-3.194Z"/><g filter="url(#e)"><path stroke="#0CC" stroke-linecap="round" stroke-linejoin="round" d="M6.141 20.781c2.444-1.875 4.888-1.875 7.332 0s4.888 1.875 7.332 0 4.888-1.875 7.332 0 4.887 1.875 7.331 0c2.444-1.875 4.888-1.875 7.332 0"/></g><g filter="url(#f)"><path stroke="#0CC" stroke-linecap="round" stroke-linejoin="round" d="M6.141 20.781c2.444-1.875 4.888-1.875 7.332 0s4.888 1.875 7.332 0 4.888-1.875 7.332 0 4.887 1.875 7.331 0c2.444-1.875 4.888-1.875 7.332 0"/></g><path stroke="#0CC" stroke-linecap="round" stroke-linejoin="round" d="M6.141 20.781c2.444-1.875 4.888-1.875 7.332 0s4.888 1.875 7.332 0 4.888-1.875 7.332 0 4.887 1.875 7.331 0c2.444-1.875 4.888-1.875 7.332 0"/><path stroke="#fff" stroke-linecap="round" stroke-linejoin="round" stroke-width=".5" d="M6.141 20.781c2.444-1.875 4.888-1.875 7.332 0s4.888 1.875 7.332 0 4.888-1.875 7.332 0 4.887 1.875 7.331 0c2.444-1.875 4.888-1.875 7.332 0"/><g stroke="#4C4CFF" filter="url(#g)"><ellipse cx=".921" cy=".7" rx=".921" ry=".7" transform="matrix(.88109 .47296 .45642 -.88976 17.14 39.232)"/><ellipse cx="1.377" cy=".936" rx="1.377" ry=".936" transform="matrix(.96443 .26435 -.25339 .96736 31.36 10.938)"/><ellipse cx=".918" cy=".702" rx=".918" ry=".702" transform="matrix(.96443 -.26435 -.25339 -.96736 29.409 39.969)"/><ellipse cx="23.096" cy="12.813" rx="1.375" ry=".938" transform="rotate(180 23.096 12.813)"/><ellipse cx="1.377" cy=".936" rx="1.377" ry=".936" transform="matrix(.96443 .26435 -.25339 .96736 25.862 8.125)"/><ellipse cx=".916" cy=".703" rx=".916" ry=".703" transform="matrix(1 0 0 -1 23.554 41.406)"/><ellipse cx="1.382" cy=".933" rx="1.382" ry=".933" transform="matrix(.88109 -.47296 .45642 .88976 15.306 11.307)"/></g><g stroke="#4C4CFF" filter="url(#h)"><ellipse cx=".921" cy=".7" rx=".921" ry=".7" transform="matrix(.88109 .47296 .45642 -.88976 17.14 39.232)"/><ellipse cx="1.377" cy=".936" rx="1.377" ry=".936" transform="matrix(.96443 .26435 -.25339 .96736 31.36 10.938)"/><ellipse cx=".918" cy=".702" rx=".918" ry=".702" transform="matrix(.96443 -.26435 -.25339 -.96736 29.409 39.969)"/><ellipse cx="23.096" cy="12.813" rx="1.375" ry=".938" transform="rotate(180 23.096 12.813)"/><ellipse cx="1.377" cy=".936" rx="1.377" ry=".936" transform="matrix(.96443 .26435 -.25339 .96736 25.862 8.125)"/><ellipse cx=".916" cy=".703" rx=".916" ry=".703" transform="matrix(1 0 0 -1 23.554 41.406)"/><ellipse cx="1.382" cy=".933" rx="1.382" ry=".933" transform="matrix(.88109 -.47296 .45642 .88976 15.306 11.307)"/></g><ellipse cx=".921" cy=".7" stroke="#4C4CFF" rx=".921" ry=".7" transform="matrix(.88109 .47296 .45642 -.88976 17.14 39.232)"/><ellipse cx="1.377" cy=".936" stroke="#4C4CFF" rx="1.377" ry=".936" transform="matrix(.96443 .26435 -.25339 .96736 31.36 10.938)"/><ellipse cx=".918" cy=".702" stroke="#4C4CFF" rx=".918" ry=".702" transform="matrix(.96443 -.26435 -.25339 -.96736 29.409 39.969)"/><ellipse cx="23.096" cy="12.813" stroke="#4C4CFF" rx="1.375" ry=".938" transform="rotate(180 23.096 12.813)"/><ellipse cx="1.377" cy=".936" stroke="#4C4CFF" rx="1.377" ry=".936" transform="matrix(.96443 .26435 -.25339 .96736 25.862 8.125)"/><ellipse cx=".916" cy=".703" stroke="#4C4CFF" rx=".916" ry=".703" transform="matrix(1 0 0 -1 23.554 41.406)"/><ellipse cx="1.382" cy=".933" stroke="#4C4CFF" rx="1.382" ry=".933" transform="matrix(.88109 -.47296 .45642 .88976 15.306 11.307)"/><ellipse cx=".921" cy=".7" stroke="#fff" stroke-width=".5" rx=".921" ry=".7" transform="matrix(.88109 .47296 .45642 -.88976 17.14 39.232)"/><ellipse cx="1.377" cy=".936" stroke="#fff" stroke-width=".5" rx="1.377" ry=".936" transform="matrix(.96443 .26435 -.25339 .96736 31.36 10.938)"/><ellipse cx=".918" cy=".702" stroke="#fff" stroke-width=".5" rx=".918" ry=".702" transform="matrix(.96443 -.26435 -.25339 -.96736 29.409 39.969)"/><ellipse cx="23.096" cy="12.813" stroke="#fff" stroke-width=".5" rx="1.375" ry=".938" transform="rotate(180 23.096 12.813)"/><ellipse cx="1.377" cy=".936" stroke="#fff" stroke-width=".5" rx="1.377" ry=".936" transform="matrix(.96443 .26435 -.25339 .96736 25.862 8.125)"/><ellipse cx=".916" cy=".703" stroke="#fff" stroke-width=".5" rx=".916" ry=".703" transform="matrix(1 0 0 -1 23.554 41.406)"/><ellipse cx="1.382" cy=".933" stroke="#fff" stroke-width=".5" rx="1.382" ry=".933" transform="matrix(.88109 -.47296 .45642 .88976 15.306 11.307)"/><defs><filter id="a" width="40.359" height="46.5" x="3.988" y="1.75" color-interpolation-filters="sRGB" filterUnits="userSpaceOnUse"><feFlood flood-opacity="0" result="BackgroundImageFix"/><feBlend in="SourceGraphic" in2="BackgroundImageFix" result="shape"/><feGaussianBlur result="effect1_foregroundBlur_110813_2" stdDeviation="2"/></filter><filter id="b" width="40.359" height="46.5" x="3.988" y="1.75" color-interpolation-filters="sRGB" filterUnits="userSpaceOnUse"><feFlood flood-opacity="0" result="BackgroundImageFix"/><feBlend in="SourceGraphic" in2="BackgroundImageFix" result="shape"/><feGaussianBlur result="effect1_foregroundBlur_110813_2" stdDeviation="2"/></filter><filter id="c" width="45.446" height="16.508" x="1.725" y="20.031" color-interpolation-filters="sRGB" filterUnits="userSpaceOnUse"><feFlood flood-opacity="0" result="BackgroundImageFix"/><feBlend in="SourceGraphic" in2="BackgroundImageFix" result="shape"/><feGaussianBlur result="effect1_foregroundBlur_110813_2" stdDeviation="2"/></filter><filter id="d" width="45.446" height="16.508" x="1.725" y="20.031" color-interpolation-filters="sRGB" filterUnits="userSpaceOnUse"><feFlood flood-opacity="0" result="BackgroundImageFix"/><feBlend in="SourceGraphic" in2="BackgroundImageFix" result="shape"/><feGaussianBlur result="effect1_foregroundBlur_110813_2" stdDeviation="2"/></filter><filter id="e" width="45.659" height="11.813" x="1.641" y="14.875" color-interpolation-filters="sRGB" filterUnits="userSpaceOnUse"><feFlood flood-opacity="0" result="BackgroundImageFix"/><feBlend in="SourceGraphic" in2="BackgroundImageFix" result="shape"/><feGaussianBlur result="effect1_foregroundBlur_110813_2" stdDeviation="2"/></filter><filter id="f" width="45.659" height="11.813" x="1.641" y="14.875" color-interpolation-filters="sRGB" filterUnits="userSpaceOnUse"><feFlood flood-opacity="0" result="BackgroundImageFix"/><feBlend in="SourceGraphic" in2="BackgroundImageFix" result="shape"/><feGaussianBlur result="effect1_foregroundBlur_110813_2" stdDeviation="2"/></filter><filter id="g" width="27.136" height="41.989" x="11.163" y="3.917" color-interpolation-filters="sRGB" filterUnits="userSpaceOnUse"><feFlood flood-opacity="0" result="BackgroundImageFix"/><feBlend in="SourceGraphic" in2="BackgroundImageFix" result="shape"/><feGaussianBlur result="effect1_foregroundBlur_110813_2" stdDeviation="2"/></filter><filter id="h" width="27.136" height="41.989" x="11.163" y="3.917" color-interpolation-filters="sRGB" filterUnits="userSpaceOnUse"><feFlood flood-opacity="0" result="BackgroundImageFix"/><feBlend in="SourceGraphic" in2="BackgroundImageFix" result="shape"/><feGaussianBlur result="effect1_foregroundBlur_110813_2" stdDeviation="2"/></filter></defs></svg>